# AST/ASF file generated using VICON BodyLanguage
# -----------------------------------------------
:version 1.10
:name VICON
:units
  mass 1.0
  length 0.45
  angle deg
:documentation
   .ast/.asf automatically generated from VICON data using
   VICON BodyBuilder and BodyLanguage model FoxedUp or BRILLIANT.MOD
:root
   order TX TY TZ RX RY RZ
   axis XYZ
   position 0 0 0  
   orientation 0 0 0 
:bonedata
  begin
     id 1 
     name lhipjoint
     direction 0.589753 -0.68606 0.426044 
     length 2.54082 
     axis 0 0 0  XYZ
  end
  begin
     id 2 
     name lfemur
     direction 0.34202 -0.939693 0  
     length 7.04539  
     axis 0 0 20  XYZ
    dof rx ry rz
    limits (-160.0 20.0)
           (-70.0 70.0)
           (-60.0 70.0)
  end
  begin
     id 3 
     name ltibia
     direction 0.34202 -0.939693 0   
     length 7.83772   
     axis 0 0 20   XYZ
    dof rx
    limits (-10.0 170.0)
  end
  begin
     id 4 
     name lfoot
     direction 0.0596604 -0.163915 0.984669   
     length 2.39542   
     axis -90 7.62852e-016 20   XYZ
    dof rx rz
    limits (-45.0 90.0)
           (-70.0 20.0)
  end
  begin
     id 5 
     name ltoes
     direction 1.53514e-011 -4.21954e-011 1   
     length 1.2047   
     axis -90 7.62852e-016 20   XYZ
    dof rx
    limits (-90.0 20.0)
  end
  begin
     id 6 
     name rhipjoint
     direction -0.580585 -0.69168 0.429534   
     length 2.52018  
     axis 0 0 0  XYZ 
  end
  begin
     id 7 
     name rfemur
     direction -0.34202 -0.939693 0   
     length 7.0101   
     axis 0 0 -20   XYZ
    dof rx ry rz
    limits (-160.0 20.0)
           (-70.0 70.0)
           (-70.0 60.0)
  end
  begin
     id 8 
     name rtibia
     direction -0.34202 -0.939693 0   
     length 7.70628   
     axis 0 0 -20   XYZ
    dof rx
    limits (-10.0 170.0)
 end
 begin
     id 9 
     name rfoot
     direction -0.0696237 -0.19129 0.979061   
     length 2.52466  
     axis -90 -7.62852e-016 -20   XYZ
    dof rx rz
    limits (-45.0 90.0)
           (-20.0 70.0)
  end
  begin
     id 10 
     name rtoes
     direction -1.53519e-011 -4.21793e-011 1   
     length 1.266   
     axis -90 -7.62852e-016 -20   XYZ
    dof rx
    limits (-90.0 20.0)
  end
  begin
     id 11 
     name lowerback
     direction 0.00381965 0.995707 -0.0924856   
     length 2.20825   
     axis 0 0 0   XYZ
    dof rx ry rz
    limits (-20.0 45.0)
           (-30.0 30.0)
           (-30.0 30.0)
  end
  begin
     id 12 
     name upperback
     direction -0.0139043 0.999634 -0.0231929   
     length 2.21517   
     axis 0 0 0   XYZ
    dof rx ry rz
    limits (-20.0 45.0)
           (-30.0 30.0)
           (-30.0 30.0)
  end
  begin
     id 13 
     name thorax
     direction -0.0143933 0.999691 0.0202892   
     length 2.22911   
     axis 0 0 0   XYZ
    dof rx ry rz
    limits (-20.0 45.0)
           (-30.0 30.0)
           (-30.0 30.0)
  end
  begin
     id 14 
     name lowerneck
     direction -0.0251153 0.981819 0.188153   
     length 1.61782   
     axis 0 0 0   XYZ
    dof rx ry rz
    limits (-20.0 45.0)
           (-30.0 30.0)
           (-30.0 30.0)
  end
  begin
     id 15 
     name upperneck
     direction 0.0563891 0.969357 -0.239095   
     length 1.64526   
     axis 0 0 0   XYZ
    dof rx ry rz
    limits (-20.0 45.0)
           (-30.0 30.0)
           (-30.0 30.0)
  end
  begin
     id 16
     name head
     direction 0.0208328 0.99459 -0.101773  
     length 1.67436  
     axis 0 0 0   XYZ
    dof rx ry rz
    limits (-20.0 45.0)
           (-30.0 30.0)
           (-30.0 30.0)
  end
  begin
     id 17 
     name lclavicle
     direction 0.917689 0.397224 0.00772059  
     length 3.31102  
     axis 0 0 0   XYZ
    dof ry rz
    limits (-20.0 10.0)
           (0.0 20.0)
  end
  begin
     id 18 
     name lhumerus
     direction 1 -4.4896e-011 2.32308e-027   
     length 5.25537   
     axis 180 -30 -90   XYZ
    dof rx ry rz
    limits (-60.0 90.0)
           (-90.0 90.0)
           (-90.0 90.0)
  end
  begin
     id 19
     name lradius
     direction 1 -4.49005e-011 -2.04271e-027   
     length 3.38855   
     axis 180 -30 -90   XYZ
    dof rx
    limits (-10.0 170.0)
  end
  begin
     id 20
     name lwrist
     direction 1 -4.48892e-011 2.56952e-028   
     length 1.69428   
     axis -5.12785e-016 90 90   XYZ
    dof ry
    limits (-180.0 0.0)
 end
  begin
     id 21 
     name lhand
     direction 1 -4.48966e-011 5.13905e-028   
     length 0.614516   
     axis -3.27915e-016 90 90   XYZ
    dof rx rz
    limits (-90.0 90.0)
           (-45.0 45.0)
  end
  begin
     id 22 
     name lfingers
     direction 1 -4.48979e-011 1.02781e-027   
     length 0.495439   
     axis -6.5583e-016 90 90   XYZ
    dof rx
    limits (0.0 90.0)
  end
  begin
     id 23
     name lthumb
     direction 0.707107 -6.35001e-011 0.707107   
     length 0.711354   
     axis -90 45 2.85299e-015   XYZ
    dof rx rz
    limits (-45.0 45.0)
           (-45.0 45.0)
  end
  begin
     id 24 
     name rclavicle
     direction -0.938556 0.342765 -0.0403177   
     length 3.27019  
     axis 0 0 0   XYZ 
    dof ry rz
    limits (-10.0 20.0)
           (-20.0 0.0)
  end
  begin
     id 25 
     name rhumerus
     direction -1 -4.48966e-011 2.52291e-027  
     length 5.38183   
     axis 180 30 90   XYZ
    dof rx ry rz
    limits (-90.0 60.0)
           (-90.0 90.0)
           (-90.0 90.0)
  end
  begin
     id 26 
     name rradius
     direction -1 -4.4896e-011 1.5797e-027   
     length 3.16988   
     axis 180 30 90   XYZ
    dof rx
    limits (-10.0 170.0)
  end
  begin
     id 27 
     name rwrist
     direction -1 -4.48947e-011 2.56952e-028   
     length 1.58494   
     axis -5.12785e-016 -90 -90   XYZ
    dof ry
    limits (-180.0 0.0)
  end
  begin
     id 28
     name rhand
     direction -1 -4.49098e-011 5.13905e-028   
     length 0.637679   
     axis -3.27915e-016 -90 -90   XYZ
    dof rx rz
    limits (-90.0 90.0)
           (-45.0 45.0)
  end
  begin
     id 29
     name rfingers
     direction -1 -4.49026e-011 1.02781e-027   
     length 0.514113   
     axis -6.5583e-016 -90 -90   XYZ
    dof rx
    limits (0.0 90.0)
  end
  begin
     id 30
     name rthumb
     direction -0.707107 -6.3491e-011 0.707107   
     length 0.738167   
     axis -90 -45 -2.85299e-015   XYZ
    dof rx rz
    limits (-45.0 45.0)
           (-45.0 45.0)
  end
:hierarchy
  begin
    root lhipjoint rhipjoint lowerback
    lhipjoint lfemur
    lfemur ltibia
    ltibia lfoot
    lfoot ltoes
    rhipjoint rfemur
    rfemur rtibia
    rtibia rfoot
    rfoot rtoes
    lowerback upperback
    upperback thorax
    thorax lowerneck lclavicle rclavicle
    lowerneck upperneck
    upperneck head
    lclavicle lhumerus
    lhumerus lradius
    lradius lwrist
    lwrist lhand lthumb
    lhand lfingers
    rclavicle rhumerus
    rhumerus rradius
    rradius rwrist
    rwrist rhand rthumb
    rhand rfingers
  end

#!OML:ASF H:\Swim\Project 1\Capture day 1\Session 1\swimmer.ASF
:FULLY-SPECIFIED
:DEGREES
3664
root 5.15512 11.8523 21.144 88.0265 -0.361262 3.71407
lowerback 3.92094 10.414 4.80321
upperback -6.23671 14.1947 -7.90032
thorax -5.59033 6.82542 -11.9985
lowerneck 7.2001 -17.4625 -15.0956
upperneck -6.14444 -23.8372 16.0781
head 0.785985 -12.2539 6.64171
rclavicle -1.04958e-013 9.54166e-015
rhumerus 397.603 13.0746 369.687
rradius 30.6764
rwrist -49.4842
rhand -18.9492 -10.7581
rfingers 7.12502
rthumb 7.35419 -400.61
lclavicle -1.04958e-013 9.54166e-015
lhumerus -5.71375 32.483 -16.6948
lradius 130.758
lwrist 54.8268
lhand 58.9983 -698.021
lfingers 7.12502
lthumb 74.3527 -6.93918
rfemur -19.3237 12.9525 23.1276
rtibia 34.1512
rfoot -2.06547 -21.5571
rtoes 6.52323
lfemur -11.4312 -3.04654 -21.997
ltibia 41.3922
lfoot 17.4095 -1.4338
ltoes 1.19958
3665
root 5.15778 11.8403 21.1472 87.9915 -0.48766 3.78967
lowerback 3.85006 10.3309 4.65931
upperback -6.15759 14.0649 -7.89142
thorax -5.52881 6.77128 -11.8864
lowerneck 7.3381 -17.4292 -15.27
upperneck -6.23965 -23.8205 16.0893
head 0.755513 -12.2482 6.68484
rclavicle 1.59028e-014 1.59028e-014
rhumerus 397.147 13.6226 368.291
rradius 30.516
rwrist -48.1118
rhand -18.9012 -10.4113
rfingers 7.12502
rthumb 7.4005 -400.262
lclavicle 1.59028e-014 1.59028e-014
lhumerus -4.14243 33.1149 -17.0965
lradius 129.542
lwrist 54.8031
lhand 58.4489 -697.888
lfingers 7.12502
lthumb 74.1919 -4.94115
rfemur -19.3311 12.3537 23.0948
rtibia 34.26
rfoot -1.58026 -21.1147
rtoes 6.34164
lfemur -11.7231 -3.05766 -22.0101
ltibia 41.1822
lfoot 17.2097 -1.23303
ltoes 1.09061
3666
root 5.16058 11.8282 21.1506 87.9511 -0.618713 3.84679
lowerback 3.78368 10.239 4.4705
upperback -6.08174 13.9204 -7.86241
thorax -5.49125 6.70962 -11.7314
lowerneck 7.48596 -17.3868 -15.4471
upperneck -6.36958 -23.7932 16.0917
head 0.710685 -12.2372 6.73023
rclavicle 9.22361e-014 7.79236e-014
rhumerus 396.645 13.9253 366.566
rradius 30.3162
rwrist -46.2704
rhand -18.7801 -9.93339
rfingers 7.12502
rthumb 7.51744 -399.78
lclavicle 9.22361e-014 7.79236e-014
lhumerus -2.58267 33.6983 -17.4644
lradius 128.22
lwrist 54.7132
lhand 57.9129 -697.773
lfingers 7.12502
lthumb 74.0188 -3.0444
rfemur -19.3055 11.6413 23.091
rtibia 34.3911
rfoot -1.10204 -20.5861
rtoes 5.983
lfemur -12.075 -3.1004 -22.0351
ltibia 40.9717
lfoot 16.7286 -1.03908
ltoes 0.828198
3667
root 5.16354 11.8163 21.1537 87.8988 -0.734229 3.87555
lowerback 3.73158 10.1423 4.25606
upperback -6.01161 13.7691 -7.80591
thorax -5.48099 6.64339 -11.538
lowerneck 7.65012 -17.3351 -15.6234
upperneck -6.53419 -23.7554 16.0795
head 0.649389 -12.221 6.77667
rclavicle 1.27222e-013 -2.54444e-014
rhumerus 396.084 13.9627 364.496
rradius 30.0903
rwrist -43.9953
rhand -18.6597 -9.30891
rfingers 7.12502
rthumb 7.63366 -399.151
lclavicle 1.27222e-013 -2.54444e-014
lhumerus -1.03041 34.2325 -17.7992
lradius 126.798
lwrist 54.5409
lhand 57.3775 -697.695
lfingers 7.12502
lthumb 73.8304 -1.22654
rfemur -19.2366 10.8429 23.1337
rtibia 34.5333
rfoot -0.667844 -19.9786
rtoes 5.52674
lfemur -12.481 -3.16307 -22.0487
ltibia 40.7739
lfoot 15.9527 -0.846411
ltoes 0.412141
3668
root 5.16688 11.8048 21.1562 87.8415 -0.842444 3.88011
lowerback 3.68992 10.0426 4.00631
upperback -5.95464 13.6127 -7.72455
thorax -5.50457 6.57353 -11.3042
lowerneck 7.84281 -17.2703 -15.8122
upperneck -6.72449 -23.7048 16.064
head 0.575024 -12.1987 6.82953
rclavicle -2.54444e-014 -1.90833e-014
rhumerus 395.454 13.7602 362.121
rradius 29.8812
rwrist -41.4479
rhand -18.6644 -8.52523
rfingers 7.12502
rthumb 7.62909 -398.368
lclavicle -2.54444e-014 -1.90833e-014
lhumerus 0.52863 34.7146 -18.085
lradius 125.284
lwrist 54.2863
lhand 56.85 -697.656
lfingers 7.12502
lthumb 73.6302 0.484854
rfemur -19.1286 9.98915 23.2043
rtibia 34.6812
rfoot -0.297332 -19.3118
rtoes 5.12295
lfemur -12.9471 -3.24936 -22.0603
ltibia 40.5968
lfoot 14.8969 -0.641869
ltoes -0.0960232
3669
root 5.17063 11.794 21.1576 87.7792 -0.936311 3.8617
lowerback 3.66124 9.93985 3.71912
upperback -5.91698 13.4515 -7.60911
thorax -5.57207 6.49993 -11.0206
lowerneck 8.0362 -17.1951 -16.0334
upperneck -6.86889 -23.6477 16.0196
head 0.512777 -12.1702 6.87624
rclavicle 6.36111e-015 -1.27222e-014
rhumerus 394.774 13.3256 359.409
rradius 29.6991
rwrist -38.6961
rhand -18.8928 -7.5529
rfingers 7.12502
rthumb 7.40858 -397.403
lclavicle 6.36111e-015 -1.27222e-014
lhumerus 2.09958 35.1325 -18.3178
lradius 123.681
lwrist 53.9755
lhand 56.3277 -697.64
lfingers 7.12502
lthumb 73.4182 2.11488
rfemur -18.9801 9.13261 23.3019
rtibia 34.8277
rfoot 0.0103747 -18.6191
rtoes 4.78516
lfemur -13.4699 -3.35936 -22.061
ltibia 40.4473
lfoot 13.6067 -0.398374
ltoes -0.592595
3670
root 5.17503 11.7835 21.1582 87.7264 -1.02717 3.83335
lowerback 3.62336 9.84086 3.38706
upperback -5.9011 13.294 -7.46874
thorax -5.67072 6.42863 -10.6885
lowerneck 8.21792 -17.1218 -16.3009
upperneck -6.92663 -23.6019 15.9442
head 0.480489 -12.1433 6.91198
rclavicle 3.18055e-015 4.6118e-014
rhumerus 394.016 12.7847 356.557
rradius 29.6448
rwrist -36.0455
rhand -19.3994 -6.4069
rfingers 7.12502
rthumb 6.9196 -396.274
lclavicle 3.18055e-015 4.6118e-014
lhumerus 3.72776 35.4958 -18.4652
lradius 121.98
lwrist 53.6348
lhand 55.7806 -697.648
lfingers 7.12502
lthumb 73.182 3.75191
rfemur -18.8051 8.32653 23.4031
rtibia 34.9695
rfoot 0.273267 -17.9489
rtoes 4.58132
lfemur -14.0548 -3.50094 -22.0625
ltibia 40.324
lfoot 12.1504 -0.100831
ltoes -1.00007
3671
root 5.18035 11.7736 21.1586 87.7006 -1.10991 3.80835
lowerback 3.55883 9.7474 3.02663
upperback -5.90904 13.144 -7.31151
thorax -5.7862 6.36225 -10.3218
lowerneck 8.3677 -17.0575 -16.6165
upperneck -6.86204 -23.5752 15.8336
head 0.492706 -12.1214 6.93057
rclavicle 9.54166e-015 9.54166e-015
rhumerus 393.15 12.3243 353.825
rradius 29.8507
rwrist -33.8518
rhand -20.221 -5.15038
rfingers 7.12502
rthumb 6.12643 -395.042
lclavicle 9.54166e-015 9.54166e-015
lhumerus 5.4508 35.8139 -18.5143
lradius 120.166
lwrist 53.297
lhand 55.1731 -697.68
lfingers 7.12502
lthumb 72.9034 5.49061
rfemur -18.6222 7.59897 23.5063
rtibia 35.1023
rfoot 0.525792 -17.3219
rtoes 4.47524
lfemur -14.7149 -3.68809 -22.0577
ltibia 40.222
lfoot 10.5916 0.273347
ltoes -1.39365
3672
root 5.18665 11.7637 21.1596 87.7004 -1.18269 3.78827
lowerback 3.47044 9.65996 2.66437
upperback -5.93279 13.0038 -7.14909
thorax -5.90255 6.3019 -9.94619
lowerneck 8.47755 -17.006 -16.9574
upperneck -6.69774 -23.5682 15.685
head 0.541165 -12.1056 6.9294
rclavicle 6.04305e-014 1.06549e-013
rhumerus 392.15 12.0856 351.408
rradius 30.425
rwrist -32.308
rhand -21.288 -3.91449
rfingers 7.12502
rthumb 5.09626 -393.833
lclavicle 6.04305e-014 1.06549e-013
lhumerus 7.29966 36.11 -18.4775
lradius 118.207
lwrist 52.9825
lhand 54.5025 -697.759
lfingers 7.12502
lthumb 72.5771 7.29682
rfemur -18.4314 6.96311 23.6124
rtibia 35.223
rfoot 0.803345 -16.7453
rtoes 4.43726
lfemur -15.4377 -3.92137 -22.0432
ltibia 40.1303
lfoot 9.03766 0.729932
ltoes -1.6198
3673
root 5.19391 11.754 21.1613 87.7092 -1.24173 3.76828
lowerback 3.37071 9.57075 2.32726
upperback -5.95457 12.8639 -6.98862
thorax -6.00212 6.2424 -9.58323
lowerneck 8.56436 -16.9495 -17.2914
upperneck -6.52564 -23.5512 15.5355
head 0.593002 -12.0846 6.92543
rclavicle 2.22639e-014 3.97569e-014
rhumerus 391.022 12.1747 349.462
rradius 31.4424
rwrist -31.4782
rhand -22.4738 -2.84219
rfingers 7.12502
rthumb 3.95123 -392.785
lclavicle 2.22639e-014 3.97569e-014
lhumerus 9.27707 36.4028 -18.3996
lradius 116.061
lwrist 52.6881
lhand 53.7908 -697.923
lfingers 7.12502
lthumb 72.2103 9.05525
rfemur -18.2149 6.38877 23.7274
rtibia 35.3273
rfoot 1.11194 -16.2047
rtoes 4.42921
lfemur -16.1928 -4.19982 -22.0137
ltibia 40.0379
lfoot 7.513 1.2772
ltoes -1.92299
3674
root 5.20212 11.7441 21.1642 87.719 -1.30033 3.74325
lowerback 3.26925 9.47245 2.02871
upperback -5.95794 12.7142 -6.84342
thorax -6.06867 6.17841 -9.25301
lowerneck 8.61032 -16.8831 -17.5764
upperneck -6.3999 -23.5098 15.3827
head 0.627624 -12.0519 6.91666
rclavicle 1.04958e-013 -8.90555e-014
rhumerus 389.794 12.5938 347.999
rradius 32.8951
rwrist -31.2623
rhand -23.6783 -2.01683
rfingers 7.12502
rthumb 2.78807 -391.978
lclavicle 1.04958e-013 -8.90555e-014
lhumerus 11.3912 36.7068 -18.322
lradius 113.687
lwrist 52.3988
lhand 53.027 -698.201
lfingers 7.12502
lthumb 71.7946 10.7502
rfemur -17.9657 5.84362 23.8368
rtibia 35.4113
rfoot 1.4431 -15.684
rtoes 4.42349
lfemur -16.9594 -4.51987 -21.9826
ltibia 39.9321
lfoot 6.06636 1.90953
ltoes -2.24361
3675
root 5.21129 11.7344 21.1681 87.7146 -1.3618 3.70427
lowerback 3.17955 9.35779 1.76358
upperback -5.93575 12.5438 -6.708
thorax -6.10623 6.10405 -8.94842
lowerneck 8.62305 -16.797 -17.7888
upperneck -6.35757 -23.4291 15.2204
head 0.627041 -12.0002 6.90358
rclavicle 3.49861e-014 -3.18055e-015
rhumerus 388.523 13.269 346.903
rradius 34.6833
rwrist -31.3519
rhand -24.762 -1.47594
rfingers 7.12502
rthumb 1.74147 -391.449
lclavicle 3.49861e-014 -3.18055e-015
lhumerus 13.6397 37.0012 -18.2626
lradius 111.066
lwrist 52.0572
lhand 52.1819 -698.598
lfingers 7.12502
lthumb 71.31 12.4288
rfemur -17.6688 5.29733 23.9373
rtibia 35.4688
rfoot 1.78075 -15.1721
rtoes 4.36618
lfemur -17.7073 -4.88163 -21.9516
ltibia 39.8031
lfoot 4.73562 2.62783
ltoes -2.52283
3676
root 5.22134 11.7249 21.1735 87.7019 -1.43692 3.65313
lowerback 3.09397 9.22294 1.51185
upperback -5.88846 12.3462 -6.58032
thorax -6.11645 6.01669 -8.65507
lowerneck 8.61242 -16.6853 -17.9335
upperneck -6.41507 -23.303 15.0567
head 0.585618 -11.9265 6.89154
rclavicle -1.145e-013 5.725e-014
rhumerus 387.252 14.1333 346.104
rradius 36.7116
rwrist -31.5447
rhand -25.6284 -1.18981
rfingers 7.12502
rthumb 0.904609 -391.168
lclavicle -1.145e-013 5.725e-014
lhumerus 16.0442 37.2631 -18.2111
lradius 108.174
lwrist 51.6199
lhand 51.2477 -699.114
lfingers 7.12502
lthumb 70.7462 14.0804
rfemur -17.3314 4.73436 24.0143
rtibia 35.4936
rfoot 2.13688 -14.6754
rtoes 4.5283
lfemur -18.4285 -5.29379 -21.9281
ltibia 39.6434
lfoot 3.5503 3.41508
ltoes -2.66652
3677
root 5.23234 11.7158 21.1807 87.6913 -1.52258 3.59114
lowerback 3.00299 9.06255 1.25225
upperback -5.8256 12.1139 -6.44447
thorax -6.11264 5.91287 -8.34454
lowerneck 8.57845 -16.543 -18.0221
upperneck -6.55119 -23.1271 14.8756
head 0.50825 -11.8275 6.8765
rclavicle 5.08889e-014 -9.54166e-015
rhumerus 386.031 15.1087 345.449
rradius 38.8476
rwrist -31.6006
rhand -26.2427 -1.03752
rfingers 7.12502
rthumb 0.311356 -391.017
lclavicle 5.08889e-014 -9.54166e-015
lhumerus 18.6114 37.4542 -18.1489
lradius 105.001
lwrist 51.0563
lhand 50.2573 -699.72
lfingers 7.12502
lthumb 70.1192 15.6314
rfemur -16.9655 4.15906 24.0686
rtibia 35.4806
rfoot 2.52168 -14.2103
rtoes 4.90102
lfemur -19.1222 -5.76778 -21.9037
ltibia 39.4494
lfoot 2.5275 4.25206
ltoes -2.6865
3678
root 5.24423 11.7075 21.1898 87.6799 -1.61306 3.51921
lowerback 2.90945 8.8814 0.970486
upperback -5.75477 11.8533 -6.28762
thorax -6.10837 5.796 -7.9979
lowerneck 8.51509 -16.3763 -18.0883
upperneck -6.70893 -22.9139 14.6697
head 0.4176 -11.7081 6.85437
rclavicle 1.87653e-013 -2.62396e-014
rhumerus 384.862 16.1661 344.873
rradius 41.0208
rwrist -31.4635
rhand -26.6245 -0.89539
rfingers 7.12502
rthumb -0.0574525 -390.875
lclavicle 1.87653e-013 -2.62396e-014
lhumerus 21.36 37.5469 -18.0147
lradius 101.561
lwrist 50.3748
lhand 49.2024 -700.348
lfingers 7.12502
lthumb 69.4211 17.1501
rfemur -16.5691 3.58891 24.1069
rtibia 35.423
rfoot 2.90013 -13.8202
rtoes 5.36187
lfemur -19.7726 -6.3137 -21.8682
ltibia 39.2193
lfoot 1.65887 5.10868
ltoes -2.62212
